<svg xmlns="http://www.w3.org/2000/svg">
  <symbol id="icon-checked" viewBox="0 0 18 13">
    <path fill-rule="evenodd" d="M1.834 6.994c.224-.154.617-.182.858-.072l3.932 1.793c.108.095.27.095.377 0l8.817-7.636c.205-.178.561-.21.81-.063l.338.2c.243.143.294.42.098.638l-9.9 11.003a.522.522 0 0 1-.378.143.522.522 0 0 1-.378-.143L.946 8.195c-.212-.181-.204-.451.022-.607l.866-.594z"/>
  </symbol>
  <symbol id="icon-cross" viewBox="0 0 24 24">
    <path d="M12.0002 12.7087L6.75423 17.9547C6.6609 18.0481 6.54623 18.0981 6.41023 18.1047C6.27423 18.1114 6.1529 18.0614 6.04623 17.9547C5.93956 17.8481 5.88623 17.7301 5.88623 17.6007C5.88623 17.4714 5.93956 17.3534 6.04623 17.2467L11.2922 12.0007L6.04623 6.75472C5.9529 6.66139 5.9029 6.54672 5.89623 6.41072C5.88956 6.27472 5.93956 6.15339 6.04623 6.04672C6.1529 5.94005 6.2709 5.88672 6.40023 5.88672C6.52956 5.88672 6.64756 5.94005 6.75423 6.04672L12.0002 11.2927L17.2462 6.04672C17.3396 5.95339 17.4546 5.90339 17.5912 5.89672C17.7266 5.89005 17.8476 5.94005 17.9542 6.04672C18.0609 6.15339 18.1142 6.27139 18.1142 6.40072C18.1142 6.53005 18.0609 6.64805 17.9542 6.75472L12.7082 12.0007L17.9542 17.2467C18.0476 17.3401 18.0976 17.4551 18.1042 17.5917C18.1109 17.7271 18.0609 17.8481 17.9542 17.9547C17.8476 18.0614 17.7296 18.1147 17.6002 18.1147C17.4709 18.1147 17.3529 18.0614 17.2462 17.9547L12.0002 12.7087Z"/>
  </symbol>
</svg>
